<?xml version="1.0" standalone="no"?>
<!DOCTYPE svg PUBLIC "-//W3C//DTD SVG 20010904//EN"
 "http://www.w3.org/TR/2001/REC-SVG-20010904/DTD/svg10.dtd">
<svg version="1.0" xmlns="http://www.w3.org/2000/svg"
 width="750.000000pt" height="750.000000pt" viewBox="0 0 750.000000 750.000000"
 preserveAspectRatio="xMidYMid meet">
<metadata>
Created by potrace 1.10, written by Peter Selinger 2001-2011
</metadata>
<g transform="translate(0.000000,750.000000) scale(0.100000,-0.100000)"
fill="#000000" stroke="none">
<path d="M3565 7491 c9 -15 -20 -20 -184 -31 -85 -6 -162 -15 -172 -20 -10 -6
-37 -10 -61 -10 -24 0 -61 -5 -83 -11 -22 -6 -63 -14 -92 -19 -28 -4 -66 -13
-85 -18 -32 -10 -82 -23 -163 -43 -22 -5 -49 -13 -60 -18 -11 -5 -54 -19 -95
-31 -41 -13 -79 -27 -85 -31 -5 -5 -18 -9 -30 -9 -12 0 -30 -7 -41 -15 -10 -8
-25 -15 -32 -15 -8 0 -30 -7 -50 -16 -21 -9 -64 -28 -97 -43 -146 -64 -510
-262 -535 -290 -3 -3 -13 -10 -22 -16 -65 -39 -211 -146 -317 -235 -247 -205
-522 -502 -676 -731 -38 -57 -73 -106 -76 -109 -31 -27 -233 -403 -304 -565
-38 -86 -45 -104 -45 -117 0 -7 -7 -22 -15 -32 -8 -11 -15 -28 -15 -38 0 -10
-4 -26 -10 -36 -13 -22 -40 -100 -47 -132 -2 -14 -9 -34 -14 -45 -5 -11 -13
-38 -18 -60 -20 -80 -33 -131 -42 -162 -11 -35 -21 -86 -39 -198 -6 -38 -16
-90 -21 -115 -14 -64 -29 -265 -36 -470 -5 -167 5 -363 28 -540 5 -41 14 -104
18 -140 5 -36 13 -85 19 -110 6 -25 16 -67 22 -95 17 -78 36 -155 54 -215 9
-30 21 -73 27 -95 6 -22 14 -44 20 -49 5 -6 9 -19 9 -30 0 -12 7 -34 15 -50 8
-15 15 -33 15 -38 0 -6 6 -24 14 -41 7 -18 21 -52 31 -77 37 -92 143 -321 154
-330 3 -3 15 -23 25 -45 28 -57 90 -159 99 -163 4 -2 7 -9 7 -15 0 -15 144
-229 178 -266 7 -7 21 -26 30 -40 9 -14 24 -35 34 -46 131 -158 193 -227 314
-349 86 -87 194 -182 324 -284 36 -29 71 -56 78 -62 29 -26 216 -149 317 -210
143 -86 496 -260 528 -260 7 0 17 -4 22 -9 6 -5 26 -14 45 -19 44 -13 95 -31
137 -49 17 -7 36 -13 43 -13 12 0 79 -21 153 -47 20 -7 51 -13 67 -13 16 0 31
-4 35 -9 3 -5 31 -13 63 -17 31 -3 65 -10 74 -15 20 -11 166 -31 428 -60 179
-20 808 2 883 30 16 6 45 11 64 11 20 0 62 6 92 14 31 8 79 19 106 26 121 27
122 27 300 80 74 22 211 72 220 81 5 5 15 9 23 9 12 0 29 7 162 67 87 40 190
91 255 128 33 19 71 39 85 45 14 6 39 22 57 36 17 13 34 24 37 24 9 0 189 122
271 184 317 238 647 583 853 892 54 82 139 216 162 258 37 66 153 299 175 351
9 22 20 49 25 60 23 51 80 203 80 214 0 6 4 19 9 29 5 9 19 49 30 87 12 39 26
84 31 101 5 16 14 50 19 75 5 24 14 62 19 84 27 106 42 186 42 215 0 17 4 39
10 49 5 10 14 79 20 152 8 97 15 137 25 145 13 9 15 56 15 288 0 214 -3 275
-12 273 -9 -1 -15 22 -21 73 -16 157 -27 230 -66 448 -6 29 -14 67 -20 85 -28
90 -41 137 -41 152 0 10 -6 31 -13 48 -8 18 -22 59 -32 92 -10 33 -24 74 -30
90 -7 17 -20 50 -30 75 -40 106 -59 149 -140 315 -38 77 -72 142 -77 143 -4 2
-8 8 -8 14 0 18 -188 319 -235 375 -19 23 -30 38 -80 103 -130 172 -344 398
-500 530 -27 23 -61 52 -75 64 -37 33 -258 198 -310 232 -76 48 -84 53 -102
60 -10 3 -18 10 -18 14 0 5 -12 13 -27 19 -16 6 -41 20 -58 31 -16 10 -52 31
-80 45 -27 15 -66 35 -85 45 -75 40 -250 120 -262 120 -8 0 -18 4 -23 9 -10
10 -48 24 -170 66 -39 13 -81 28 -95 33 -14 5 -52 18 -85 27 -33 9 -76 22 -95
28 -19 6 -53 14 -75 18 -50 10 -124 27 -196 45 -30 8 -74 14 -97 14 -22 0 -52
4 -66 10 -14 5 -94 14 -178 20 -163 11 -192 16 -183 31 4 5 -66 9 -175 9 -109
0 -179 -4 -175 -9z m480 -121 c177 -16 374 -47 530 -85 33 -8 80 -19 105 -25
25 -6 63 -17 85 -24 22 -7 65 -21 95 -31 76 -24 187 -64 237 -86 23 -11 44
-19 47 -19 14 0 234 -106 351 -169 127 -69 342 -209 455 -296 309 -238 619
-568 821 -875 97 -146 119 -182 119 -190 0 -5 6 -15 13 -22 27 -29 164 -306
212 -428 9 -25 22 -56 28 -70 60 -143 144 -430 167 -573 6 -33 13 -63 16 -68
9 -15 34 -199 46 -334 14 -154 14 -526 0 -680 -12 -135 -37 -319 -46 -334 -3
-5 -10 -35 -16 -68 -9 -55 -24 -123 -51 -223 -18 -67 -98 -310 -114 -345 -7
-16 -18 -41 -23 -55 -34 -82 -51 -118 -111 -240 -36 -74 -95 -184 -131 -243
-36 -59 -70 -115 -75 -125 -15 -26 -98 -146 -104 -152 -3 -3 -19 -23 -34 -46
-15 -22 -35 -49 -45 -60 -9 -10 -44 -53 -76 -94 -78 -98 -380 -400 -476 -475
-41 -33 -84 -67 -94 -77 -11 -10 -38 -30 -60 -45 -23 -15 -43 -31 -46 -34 -5
-5 -204 -136 -260 -171 -80 -49 -333 -179 -415 -213 -42 -17 -76 -32 -135 -57
-19 -9 -50 -19 -67 -22 -18 -4 -35 -12 -38 -17 -7 -11 -42 -12 -49 -1 -2 4 0
25 6 47 14 56 -1 89 -51 111 -39 17 -41 20 -71 118 -16 56 -38 126 -47 156 -9
30 -27 78 -39 107 l-23 51 -78 -25 c-43 -13 -100 -31 -128 -39 -27 -8 -72 -22
-100 -30 -27 -8 -67 -20 -88 -26 -41 -11 -57 -32 -39 -50 8 -8 36 -3 99 17 48
15 92 28 97 29 4 0 17 -25 29 -56 17 -47 18 -59 7 -72 -17 -22 -39 -20 -65 4
-25 23 -55 18 -55 -10 0 -17 120 -130 138 -130 4 0 25 -16 47 -35 44 -39 66
-43 86 -19 12 14 10 19 -9 33 -13 9 -46 33 -73 54 l-51 39 27 29 c25 25 27 33
21 75 -3 26 -11 53 -17 60 -6 7 -9 23 -7 35 2 17 14 25 58 36 63 16 72 10 91
-60 12 -44 0 -67 -35 -67 -11 0 -28 -5 -36 -10 -13 -8 -13 -11 2 -26 14 -15
22 -16 43 -6 51 24 52 23 100 -129 17 -56 17 -57 -4 -78 -12 -12 -20 -28 -18
-34 6 -18 42 -20 57 -2 7 8 22 15 34 15 50 0 61 -51 22 -97 -22 -26 -30 -28
-94 -28 -43 0 -75 5 -85 14 -9 7 -24 11 -32 7 -25 -9 -17 -40 15 -58 31 -18
39 -36 17 -42 -12 -3 -52 -12 -192 -41 -110 -23 -264 -47 -337 -52 -75 -5 -82
1 -48 44 46 59 8 133 -70 137 -59 4 -100 -11 -100 -34 0 -27 17 -34 51 -20 24
10 35 10 55 0 31 -17 31 -42 -1 -75 -37 -36 -101 -35 -172 5 -30 17 -58 28
-63 25 -18 -11 -10 -43 15 -59 46 -30 32 -46 -39 -46 -127 0 -423 21 -511 35
-202 35 -335 62 -475 99 -61 15 -294 92 -325 106 -11 5 -48 21 -83 35 -35 14
-102 44 -148 65 -46 22 -86 40 -88 40 -2 0 -53 27 -112 60 -59 33 -109 60
-110 60 -2 0 -66 41 -184 119 -53 35 -250 179 -260 190 -3 3 -27 24 -55 46
-119 94 -366 341 -460 460 -22 28 -43 52 -46 55 -20 18 -190 255 -224 312 -5
10 -39 66 -75 125 -56 93 -181 337 -212 413 -16 39 -34 81 -52 123 -9 21 -16
42 -16 48 0 6 -6 25 -14 42 -8 18 -21 55 -30 82 -8 28 -20 66 -27 85 -57 179
-118 495 -139 725 -11 117 -11 536 0 645 16 160 47 358 76 480 36 151 91 340
115 395 5 11 18 49 30 85 12 36 25 70 29 75 4 6 11 21 15 35 14 45 114 253
171 355 18 33 38 69 44 80 6 11 18 32 28 47 9 15 35 55 56 90 55 87 222 311
308 410 231 272 557 548 868 738 111 67 381 207 470 242 35 14 79 32 123 52
21 9 42 16 48 16 6 0 25 6 42 14 79 36 333 106 517 141 107 21 281 46 380 54
124 11 499 11 615 1z"/>
<path d="M3784 7203 c-45 -22 -66 -66 -81 -168 -16 -119 -16 -195 1 -278 21
-101 66 -137 170 -137 92 0 152 61 158 162 l3 43 -44 0 -45 0 -14 -55 c-7 -30
-19 -58 -25 -62 -21 -14 -54 -8 -81 13 l-26 20 0 171 c0 156 2 172 21 199 15
22 28 29 53 29 39 0 51 -11 63 -60 9 -33 11 -35 54 -35 l44 0 -1 41 c-1 50
-31 95 -78 118 -43 20 -131 20 -172 -1z"/>
<path d="M3325 7200 c-11 -5 -31 -9 -45 -9 -30 -1 -86 -49 -100 -86 -15 -41
-12 -149 9 -275 27 -159 47 -195 124 -220 58 -18 161 5 207 46 34 31 35 35 38
116 2 46 -1 115 -7 153 -32 210 -52 249 -137 273 -47 14 -61 14 -89 2z m61
-88 c35 -28 47 -62 62 -172 7 -58 16 -121 19 -141 9 -64 -33 -119 -90 -119
-54 0 -82 64 -97 227 -14 145 -11 172 22 203 27 24 56 25 84 2z"/>
<path d="M4226 7134 c-4 -22 -11 -66 -18 -99 -6 -33 -15 -85 -19 -115 -17
-115 -39 -235 -48 -260 -12 -37 -1 -51 47 -57 46 -6 49 -1 63 102 5 33 15 96
23 140 7 44 19 114 26 155 6 41 16 90 22 108 12 41 5 49 -49 58 l-42 6 -5 -38z"/>
<path d="M4495 7118 c-6 -18 -33 -113 -52 -178 -8 -30 -19 -69 -24 -86 -5 -16
-13 -50 -18 -75 -19 -87 -36 -147 -44 -155 -4 -4 -7 -18 -7 -30 0 -19 7 -24
38 -30 53 -10 172 -40 205 -53 37 -14 47 -7 47 34 0 34 -13 45 -53 45 -12 0
-44 9 -72 19 -37 14 -50 24 -48 38 3 28 30 130 38 143 8 13 38 10 116 -11 57
-14 79 -8 79 24 0 26 -25 42 -87 53 -69 12 -76 20 -69 75 8 62 14 77 35 88 17
10 102 -8 141 -29 24 -13 45 -2 53 29 7 28 -6 42 -49 52 -89 20 -151 36 -177
47 -36 15 -47 15 -52 0z"/>
<path d="M2752 7079 c-77 -36 -103 -118 -62 -198 21 -43 59 -69 135 -96 133
-47 165 -71 165 -125 0 -71 -86 -98 -128 -40 -12 16 -22 35 -22 42 -1 32 -15
38 -55 23 -35 -12 -40 -17 -37 -42 5 -40 39 -92 76 -114 54 -33 144 -21 213
29 39 28 57 84 47 148 -12 80 -57 116 -204 164 -71 24 -110 58 -110 95 0 73
108 75 133 3 6 -18 41 -24 71 -12 29 11 19 61 -20 104 -35 39 -39 40 -98 40
-40 -1 -76 -8 -104 -21z"/>
<path d="M4878 6985 c-14 -31 -6 -41 48 -60 46 -15 53 -39 30 -96 -9 -22 -23
-58 -32 -81 -41 -107 -48 -125 -60 -155 -8 -17 -14 -37 -14 -45 0 -8 -4 -18
-9 -24 -4 -5 -13 -23 -19 -41 -13 -39 0 -60 45 -69 26 -5 34 -3 39 12 3 11 12
33 20 51 8 17 14 37 14 45 0 8 4 18 9 24 4 5 13 23 19 39 29 80 64 173 76 200
8 17 16 39 18 50 4 26 32 30 73 11 46 -22 64 -20 71 9 8 31 -8 52 -47 60 -17
4 -42 13 -57 21 -15 8 -34 14 -42 14 -8 0 -24 7 -34 15 -11 8 -29 15 -40 15
-12 0 -30 7 -40 15 -29 22 -55 18 -68 -10z"/>
<path d="M5326 6768 c-3 -29 -12 -107 -19 -173 -13 -116 -25 -155 -67 -220
-11 -16 -23 -37 -26 -45 -4 -8 -14 -23 -21 -32 -21 -24 -8 -54 29 -67 38 -13
44 -9 84 64 56 103 76 126 155 182 44 32 107 77 140 100 32 24 59 49 59 55 0
7 -18 21 -40 31 l-39 18 -48 -36 c-26 -20 -65 -52 -85 -71 -64 -59 -66 -55
-39 110 6 38 9 76 6 85 -5 15 -57 51 -75 51 -4 0 -10 -24 -14 -52z"/>
<path d="M2083 6782 c-23 -10 -48 -23 -55 -30 -6 -6 -15 -12 -19 -12 -15 0
-129 -73 -129 -82 0 -6 19 -43 43 -82 24 -39 46 -78 50 -86 4 -8 16 -28 27
-45 11 -16 23 -37 26 -45 19 -41 136 -230 144 -230 5 0 12 5 15 11 4 5 18 14
31 19 25 10 32 34 13 45 -5 4 -14 17 -20 28 -5 12 -13 29 -18 37 -66 106 -70
118 -52 134 9 8 34 22 54 31 53 22 81 6 132 -79 54 -87 64 -93 115 -65 43 24
48 33 26 46 -8 4 -38 44 -67 88 -59 90 -64 95 -101 95 -35 0 -39 8 -26 55 21
78 -51 186 -123 184 -13 0 -43 -8 -66 -17z m71 -100 c36 -38 45 -95 20 -123
-22 -25 -66 -49 -89 -49 -8 0 -20 10 -25 23 -6 12 -19 36 -30 52 -40 60 -40
61 27 101 51 30 64 29 97 -4z"/>
<path d="M1688 6543 c-9 -10 -49 -43 -89 -73 -119 -90 -116 -84 -77 -131 18
-22 47 -58 63 -79 111 -146 151 -197 166 -212 9 -9 32 -37 50 -62 18 -25 37
-46 42 -46 8 0 84 55 97 70 3 4 31 26 63 49 61 46 70 70 36 95 -20 14 -25 11
-85 -40 -35 -30 -70 -54 -78 -54 -7 0 -25 17 -40 39 -15 21 -38 49 -51 61 -14
13 -25 29 -25 36 0 7 29 34 65 60 36 26 65 49 65 50 0 19 -23 54 -36 54 -16 0
-66 -33 -108 -72 -11 -10 -25 -18 -32 -18 -13 0 -77 75 -86 101 -8 21 -3 27
70 83 34 26 62 52 62 58 0 11 -38 48 -49 48 -4 0 -14 -8 -23 -17z"/>
<path d="M3425 6429 c-27 -5 -81 -13 -120 -18 -125 -17 -417 -91 -439 -112 -6
-5 -18 -9 -27 -9 -32 0 -373 -158 -454 -210 -16 -11 -39 -24 -50 -30 -39 -21
-117 -71 -125 -80 -3 -4 -27 -21 -55 -40 -122 -82 -407 -346 -485 -449 -14
-18 -42 -54 -64 -79 -21 -25 -50 -64 -65 -86 -14 -23 -30 -45 -34 -51 -7 -8
-67 -104 -114 -180 -15 -25 -136 -268 -157 -317 -9 -20 -16 -42 -16 -50 0 -7
-7 -22 -15 -32 -8 -11 -15 -30 -15 -42 0 -13 -4 -25 -9 -29 -5 -3 -12 -20 -16
-38 -4 -17 -12 -50 -19 -72 -40 -121 -37 -109 -71 -305 -8 -47 -20 -112 -25
-145 -13 -77 -13 -551 0 -630 5 -33 14 -91 20 -130 18 -127 74 -348 106 -423
8 -18 14 -41 14 -50 0 -10 7 -27 15 -38 8 -10 15 -25 15 -31 0 -26 118 -272
172 -361 21 -34 38 -64 38 -67 0 -6 128 -193 140 -205 3 -3 30 -36 60 -75 107
-138 284 -316 419 -420 203 -158 411 -286 586 -360 22 -9 54 -22 70 -30 65
-28 82 -35 125 -50 143 -50 334 -101 430 -115 30 -5 87 -14 125 -21 96 -17
615 -17 710 0 39 7 95 16 125 21 60 8 167 32 221 48 129 39 251 79 289 95 261
109 441 211 655 371 106 79 117 89 269 241 158 157 162 162 259 295 43 58 81
110 85 115 9 10 44 68 95 153 23 39 112 218 147 297 30 67 64 162 114 323 21
66 48 198 76 367 27 160 20 655 -10 788 -5 23 -14 67 -20 97 -13 74 -35 163
-55 230 -9 30 -21 72 -26 93 -5 21 -13 45 -18 55 -18 36 -41 93 -41 103 0 12
-126 269 -173 354 -33 59 -163 255 -176 265 -3 3 -31 37 -61 75 -105 136 -299
327 -440 435 -25 19 -49 38 -55 43 -142 109 -369 241 -541 312 -49 20 -98 41
-109 46 -32 14 -207 71 -245 80 -19 5 -75 18 -125 29 -49 12 -119 25 -155 30
-36 5 -94 14 -130 19 -77 12 -553 12 -625 0z m-149 -705 c79 -51 74 3 74 -816
l0 -730 -28 -28 c-22 -22 -41 -29 -83 -34 -30 -3 -391 -4 -804 -3 -578 2 -755
5 -772 15 -36 20 -46 47 -30 84 21 49 1480 1496 1532 1519 54 24 65 23 111 -7z
m1885 -32 l29 -33 -2 -737 c-3 -719 -3 -738 -23 -764 -47 -62 -119 -75 -183
-33 -20 13 -369 354 -774 757 -512 510 -739 742 -744 761 -8 36 25 74 70 80
17 2 383 4 814 3 l784 -1 29 -33z m-43 -1698 c15 -9 36 -28 47 -42 20 -26 20
-45 23 -764 l2 -737 -29 -33 -29 -33 -811 0 -811 0 -26 27 c-21 21 -25 32 -20
55 5 20 224 244 744 761 405 403 753 744 772 757 41 28 100 32 138 9z m-1834
-8 c70 -29 66 20 66 -793 l0 -733 -43 -44 c-23 -24 -53 -47 -67 -51 -64 -16
-85 3 -855 767 -464 461 -743 745 -752 766 -12 30 -12 37 2 58 8 13 28 26 43
30 15 3 32 7 37 9 6 2 353 4 773 4 631 1 768 -1 796 -13z m-434 -1762 c56 -20
80 -51 82 -104 2 -53 -11 -66 -54 -54 -25 7 -34 16 -36 36 -2 15 -10 32 -17
38 -20 17 -62 4 -68 -20 -5 -21 27 -53 118 -119 55 -39 79 -88 72 -144 -10
-73 -62 -118 -137 -119 -95 -1 -150 48 -150 136 l0 46 45 0 c44 0 45 -1 45
-32 0 -38 25 -68 56 -68 50 0 54 77 5 108 -59 37 -116 85 -133 110 -26 40 -24
114 5 147 19 22 82 53 112 55 6 0 30 -7 55 -16z m-242 -35 c4 -37 -15 -48 -88
-51 l-65 -3 -3 -38 c-4 -51 13 -70 53 -63 17 4 46 3 64 0 29 -6 32 -10 29 -38
-3 -31 -3 -31 -73 -36 l-70 -5 0 -60 0 -60 65 -3 c73 -3 92 -14 88 -51 l-3
-26 -120 0 -120 0 -3 220 c-1 121 0 225 3 233 3 10 33 12 122 10 l118 -3 3
-26z m666 9 c18 -29 -5 -52 -55 -58 l-44 -5 -2 -179 c-1 -98 -4 -185 -7 -193
-4 -10 -18 -13 -43 -11 l-38 3 -3 193 -2 192 -34 0 c-51 0 -66 9 -66 39 0 15
3 31 7 35 4 3 67 5 141 4 116 -3 136 -5 146 -20z m312 -22 l34 -39 0 -139 c0
-147 -8 -179 -54 -223 -18 -18 -34 -20 -131 -20 l-110 0 -3 220 c-1 121 0 226
3 233 4 11 29 13 116 10 l111 -3 34 -39z m638 38 c14 -5 16 -35 16 -230 l0
-224 -25 -6 c-14 -3 -36 -3 -50 0 l-25 6 0 144 c0 113 -3 146 -15 156 -8 6
-19 9 -25 5 -6 -4 -22 -4 -36 -1 -21 6 -25 12 -22 39 3 28 8 33 42 42 24 6 48
21 65 42 26 32 44 39 75 27z m330 -15 c49 -38 56 -66 56 -214 0 -116 -3 -141
-20 -175 -27 -52 -69 -74 -134 -67 -56 5 -96 39 -96 83 0 21 4 24 37 24 20 0
44 -7 54 -16 25 -22 56 -9 64 26 9 41 0 52 -30 38 -19 -8 -35 -8 -66 1 -34 10
-43 19 -60 57 -38 90 -12 220 51 251 40 20 113 16 144 -8z m331 -15 c35 -42
29 -68 -16 -72 -23 -2 -40 2 -49 12 -20 25 -48 19 -65 -15 -9 -17 -14 -34 -10
-37 4 -4 31 -7 61 -8 66 -1 93 -22 104 -84 9 -49 2 -156 -12 -183 -29 -55
-130 -74 -189 -34 -46 31 -58 72 -58 207 -1 144 9 187 50 224 29 26 37 28 96
24 56 -4 67 -8 88 -34z m323 -6 c4 -34 -25 -48 -98 -48 -39 0 -52 -4 -60 -19
-18 -34 -12 -39 54 -43 53 -3 68 -8 85 -28 32 -39 46 -123 31 -189 -18 -80
-55 -111 -132 -111 -82 0 -132 52 -126 129 3 31 7 36 32 39 34 4 46 -6 60 -50
9 -26 17 -33 36 -33 21 0 26 6 33 44 19 94 -14 147 -69 110 -16 -10 -39 -19
-50 -19 -40 0 -46 21 -39 132 4 57 10 107 12 111 3 4 55 6 116 5 l112 -3 3
-27z m-1407 -355 c5 -15 7 -38 4 -51 -5 -20 -11 -23 -48 -20 -40 3 -42 5 -45
38 -4 38 16 60 55 60 16 0 27 -8 34 -27z"/>
<path d="M3416 2123 c-8 -19 -6 -261 1 -280 8 -20 68 -16 86 5 14 15 17 41 17
139 0 103 -3 122 -18 136 -25 22 -78 22 -86 0z"/>
<path d="M4452 2128 c-17 -17 -15 -120 2 -144 12 -15 18 -17 33 -8 20 12 34
109 21 144 -8 22 -38 26 -56 8z"/>
<path d="M4760 1971 c-14 -28 -13 -114 3 -135 7 -10 22 -17 33 -14 16 3 20 13
22 63 2 32 1 69 -3 82 -7 28 -40 31 -55 4z"/>
<path d="M5959 6258 c-77 -55 -214 -204 -248 -268 -12 -22 -21 -52 -21 -65 0
-63 84 -159 161 -184 44 -14 105 5 154 48 63 55 184 193 206 234 32 61 29 125
-7 173 -76 99 -163 121 -245 62z m158 -80 c16 -15 23 -33 23 -58 0 -30 -11
-49 -79 -125 -112 -128 -142 -155 -184 -162 -30 -4 -40 -1 -62 22 -23 22 -26
33 -22 61 6 37 21 58 129 174 106 114 147 133 195 88z"/>
<path d="M1251 6154 c-104 -108 -112 -118 -102 -140 16 -35 49 -30 86 13 23
27 35 34 47 27 9 -5 89 -80 179 -166 89 -87 166 -158 170 -158 3 0 21 14 38
32 l31 31 -73 70 c-222 214 -267 261 -267 279 0 11 14 31 30 45 17 13 30 32
30 42 0 21 -19 41 -39 41 -9 0 -67 -52 -130 -116z"/>
<path d="M6385 5920 c-3 -6 -39 -36 -78 -67 -40 -31 -74 -59 -77 -63 -3 -3
-60 -49 -127 -103 -68 -54 -123 -102 -123 -107 0 -5 13 -23 30 -41 l30 -33 22
21 c13 11 36 31 52 44 16 13 46 39 67 57 20 17 45 32 55 31 11 0 41 -27 68
-60 27 -32 54 -59 61 -59 7 0 20 9 30 20 17 19 16 21 -35 84 -35 45 -50 71
-45 83 7 21 88 83 107 83 7 0 23 -15 35 -33 13 -17 38 -50 56 -71 l33 -39 28
18 c17 11 25 24 21 33 -3 8 -40 59 -83 113 -54 69 -84 98 -99 98 -12 1 -25 -4
-28 -9z"/>
<path d="M1002 5870 c-12 -16 -22 -33 -22 -38 0 -5 41 -38 90 -73 146 -103
264 -192 272 -203 17 -24 8 -77 -17 -101 -31 -32 -63 -32 -111 1 -94 64 -174
121 -246 176 -42 32 -80 58 -85 58 -13 0 -53 -47 -53 -62 0 -16 303 -244 367
-277 57 -29 92 -27 140 8 43 31 69 64 96 120 22 45 21 79 -3 118 -20 33 -371
303 -394 303 -7 0 -22 -13 -34 -30z"/>
<path d="M701 5394 c-29 -24 -140 -229 -129 -239 11 -12 481 -245 492 -245 18
0 33 19 41 51 6 26 2 29 -90 75 -54 26 -99 53 -102 60 -2 7 5 33 17 59 12 25
24 67 26 93 8 63 -22 107 -95 145 -70 35 -119 35 -160 1z m119 -92 c42 -21 57
-57 44 -108 -15 -59 -32 -63 -109 -25 -36 18 -69 39 -71 46 -3 7 2 26 12 42
43 69 61 76 124 45z"/>
<path d="M6580 5189 c-129 -66 -239 -124 -244 -129 -12 -12 21 -80 38 -80 12
0 76 32 409 202 42 22 79 44 82 48 11 18 -25 81 -45 79 -3 0 -111 -54 -240
-120z"/>
<path d="M6904 5045 c-10 -8 -25 -15 -32 -15 -8 0 -28 -6 -45 -14 -18 -8 -61
-24 -97 -37 -127 -43 -145 -50 -165 -58 -42 -18 -101 -40 -122 -46 -27 -8 -28
-11 -8 -59 13 -31 19 -36 38 -31 51 14 269 104 282 116 10 10 55 12 55 3 0 -8
-30 -36 -96 -89 -49 -39 -86 -72 -171 -150 l-44 -40 21 -48 c21 -46 33 -57 45
-37 3 6 13 10 22 10 8 0 29 6 46 14 18 7 73 28 122 45 50 18 105 39 123 47 18
8 38 14 45 14 7 0 24 6 39 14 15 8 40 17 57 21 47 10 57 29 38 70 -17 36 -33
42 -65 26 -35 -18 -93 -41 -102 -41 -10 0 -121 -48 -173 -75 -16 -8 -34 -12
-39 -9 -12 7 9 28 192 184 110 94 111 95 106 133 -7 62 -33 81 -72 52z"/>
<path d="M477 4933 c-2 -5 -12 -34 -22 -66 -14 -42 -17 -62 -9 -74 6 -9 64
-45 130 -80 118 -63 130 -69 159 -78 8 -2 15 -10 15 -16 0 -9 -33 -10 -132 -4
-73 5 -155 9 -181 9 l-48 1 -20 -55 c-25 -71 -22 -104 11 -108 14 -2 43 -9 65
-16 40 -13 102 -31 213 -62 31 -9 71 -20 87 -26 17 -5 46 -14 65 -18 19 -5 45
-12 58 -15 19 -6 24 -2 37 28 20 49 12 63 -43 75 -26 6 -72 18 -102 27 -58 18
-140 39 -229 59 -30 7 -57 18 -59 24 -5 16 144 15 323 -2 134 -14 141 -13 160
5 19 19 19 19 0 38 -11 10 -65 43 -120 72 -55 30 -131 70 -170 91 -38 21 -78
41 -87 44 -24 9 -23 34 2 34 10 0 34 -6 52 -14 32 -13 69 -25 193 -61 33 -10
79 -24 102 -32 58 -20 73 -15 88 30 16 46 33 38 -230 113 -104 29 -210 60
-235 69 -50 17 -67 19 -73 8z"/>
<path d="M7070 4509 c-19 -5 -71 -16 -115 -24 -44 -9 -111 -22 -150 -29 -38
-8 -99 -19 -135 -25 -102 -18 -103 -19 -96 -54 3 -18 9 -60 15 -95 12 -83 28
-121 64 -154 29 -27 34 -28 136 -28 79 0 128 6 192 24 156 41 195 82 183 189
-8 79 -38 200 -50 203 -5 1 -25 -2 -44 -7z m9 -140 c32 -93 -9 -127 -195 -163
-150 -29 -191 -17 -215 62 -15 50 -2 72 43 72 28 0 59 6 213 43 33 8 79 15
102 16 38 1 42 -2 52 -30z"/>
<path d="M376 4225 c-55 -21 -72 -39 -90 -95 -30 -91 -14 -173 41 -214 47 -34
166 -56 317 -56 l138 0 38 38 c32 32 39 47 45 95 11 83 0 139 -33 168 -45 40
-69 49 -160 60 -160 19 -254 20 -296 4z m343 -112 c44 -15 80 -46 81 -71 0
-28 -31 -70 -61 -82 -46 -20 -320 10 -358 38 -50 37 -34 119 26 135 34 10 268
-5 312 -20z"/>
<path d="M7030 3970 c-41 -4 -142 -13 -225 -19 -82 -6 -153 -15 -157 -19 -5
-5 -6 -28 -2 -51 l7 -43 46 6 c25 3 114 10 196 16 83 5 188 16 235 23 l85 12
-2 35 c0 19 -1 38 -2 43 -1 8 -75 7 -181 -3z"/>
<path d="M6657 3763 c-4 -3 -7 -28 -7 -54 0 -48 9 -59 50 -59 11 0 35 -8 55
-17 33 -16 35 -20 35 -65 0 -63 -20 -83 -94 -92 -32 -4 -59 -13 -61 -19 -26
-87 -20 -91 111 -71 322 48 452 69 457 74 2 3 7 31 10 63 5 51 3 59 -16 72
-12 7 -35 17 -52 20 -16 4 -68 20 -115 35 -47 15 -132 42 -190 60 -58 18 -120
39 -138 46 -38 16 -37 16 -45 7z m308 -182 c44 -11 92 -22 108 -26 33 -7 36
-23 5 -29 -93 -18 -167 -28 -188 -25 -20 3 -26 10 -28 37 -4 36 3 62 15 62 4
0 43 -9 88 -19z"/>
<path d="M652 3713 c-5 -10 -7 -32 -5 -49 5 -30 8 -32 56 -37 53 -5 77 -24 77
-62 0 -62 -57 -83 -250 -92 -122 -6 -129 -5 -159 17 -27 19 -32 27 -29 58 3
33 7 38 48 52 41 14 45 19 48 50 4 60 -8 68 -73 45 -43 -14 -63 -28 -81 -54
-50 -74 -20 -212 54 -247 29 -14 61 -15 211 -12 190 5 223 13 274 64 34 34 41
59 35 134 -4 51 -9 65 -37 94 -21 21 -47 37 -70 40 -20 4 -48 9 -63 12 -19 4
-29 0 -36 -13z"/>
<path d="M1787 1423 c-16 -16 -4 -40 32 -62 22 -13 58 -40 82 -61 l42 -36 -34
-47 c-27 -37 -39 -46 -59 -44 -21 2 -25 8 -28 39 -4 45 -25 66 -47 48 -12 -10
-15 -41 -15 -160 0 -119 3 -150 15 -160 12 -10 18 -10 30 0 11 9 13 26 8 70
-3 32 -3 69 1 83 5 23 11 25 52 24 45 -2 47 0 81 48 19 28 41 51 48 53 21 5
94 -51 95 -72 0 -22 -57 -96 -74 -96 -7 0 -21 9 -31 20 -21 23 -55 27 -55 5 0
-8 14 -27 30 -42 35 -31 36 -40 10 -73 -11 -14 -36 -46 -55 -71 -33 -46 -34
-47 -15 -64 27 -24 39 -16 88 55 23 34 47 67 52 73 6 7 32 41 59 77 42 56 48
72 47 109 -1 36 -6 47 -31 66 -16 12 -84 61 -150 108 -66 47 -127 93 -136 102
-17 16 -32 19 -42 8z"/>
<path d="M5629 1404 c-7 -9 -45 -38 -84 -64 -38 -26 -94 -66 -123 -89 -43 -35
-51 -45 -41 -57 6 -8 15 -14 20 -14 7 0 109 73 162 116 25 20 52 10 75 -30
l20 -34 -99 -73 c-54 -40 -99 -76 -99 -80 0 -21 109 -63 136 -52 17 6 17 8 2
50 -12 33 -11 35 27 68 22 19 47 34 56 35 9 0 43 -35 74 -77 32 -43 62 -82 66
-87 9 -10 49 20 49 35 0 5 -47 72 -105 149 -98 132 -119 170 -95 170 17 0 11
29 -9 39 -14 8 -22 7 -32 -5z"/>
<path d="M5796 1361 c-10 -16 5 -41 24 -41 19 0 34 25 24 41 -3 5 -14 9 -24 9
-10 0 -21 -4 -24 -9z"/>
<path d="M2335 1270 c-3 -5 -1 -19 6 -31 6 -12 17 -40 23 -63 7 -23 18 -40 25
-38 7 1 19 -2 26 -8 10 -9 21 -3 47 25 33 37 44 39 106 20 16 -5 22 -3 22 8 0
21 -19 34 -63 42 -31 6 -44 3 -69 -15 -35 -26 -55 -21 -64 17 -3 15 -7 34 -10
41 -4 14 -40 16 -49 2z"/>
<path d="M5912 1198 c2 -15 11 -24 26 -26 18 -3 22 1 22 22 0 21 -5 26 -26 26
-21 0 -25 -4 -22 -22z"/>
<path d="M4813 1134 c-67 -40 -94 -120 -58 -171 11 -16 14 -34 9 -62 -6 -39
-5 -41 20 -41 17 0 29 -7 32 -17 12 -37 69 -178 114 -280 21 -48 24 -51 46
-41 29 14 30 26 3 86 -28 65 -34 79 -59 142 -33 86 -43 103 -72 128 -20 17
-26 28 -19 39 5 10 0 30 -17 61 l-25 45 19 35 c27 50 86 71 152 54 64 -17 113
-44 110 -61 -2 -7 -32 -29 -68 -48 -79 -42 -95 -56 -87 -78 6 -14 11 -13 46 5
60 30 74 26 104 -29 32 -59 32 -57 6 -71 -14 -8 -29 -8 -49 -1 -23 7 -32 6
-42 -6 -11 -13 -6 -22 36 -59 64 -59 124 -84 198 -84 73 0 121 23 182 87 l46
47 20 -22 c12 -12 25 -22 30 -22 15 0 40 43 31 54 -8 11 -37 62 -104 188 -54
100 -60 108 -84 108 -12 0 -26 8 -32 17 -9 16 -16 14 -90 -21 -74 -37 -82 -38
-98 -24 -10 9 -44 28 -77 42 -80 36 -164 35 -223 0z m497 -56 c33 -53 57 -112
52 -132 -6 -23 -40 -55 -59 -56 -17 0 -53 41 -53 60 0 9 9 25 20 35 42 38 8
64 -35 27 -47 -39 -55 -91 -21 -137 22 -30 117 -29 146 3 44 46 76 15 41 -41
-44 -71 -110 -117 -169 -117 -39 0 -100 21 -119 42 -15 17 -15 20 10 46 34 36
34 51 -4 118 -16 30 -29 60 -27 65 4 11 176 107 193 108 6 1 17 -9 25 -21z"/>
<path d="M2224 1115 c-9 -22 -2 -27 85 -70 70 -35 80 -43 81 -67 0 -14 -4 -28
-8 -30 -4 -1 -21 -28 -36 -58 -40 -78 -53 -90 -97 -90 -70 0 -101 78 -52 133
18 19 65 20 106 3 29 -13 21 29 -9 49 -63 41 -155 7 -174 -65 -20 -73 15 -135
91 -160 51 -17 55 -25 33 -65 -15 -28 -16 -36 -5 -49 25 -30 46 -18 74 42 15
31 51 102 81 157 46 85 58 101 82 105 49 9 42 37 -13 61 -26 11 -55 26 -63 33
-21 19 -147 86 -160 86 -6 0 -13 -7 -16 -15z"/>
<path d="M2761 854 c-24 -30 -27 -49 -9 -60 7 -4 18 2 26 14 9 14 25 22 43 22
25 0 29 -4 29 -27 -1 -45 -17 -105 -32 -114 -7 -5 -25 -6 -40 -3 -23 5 -28 2
-28 -15 0 -22 29 -82 59 -120 l19 -24 25 41 c25 39 27 40 59 30 18 -6 39 -12
46 -14 18 -5 15 -46 -9 -114 -23 -67 -20 -90 10 -90 23 0 45 36 60 96 5 22 17
64 26 94 48 158 47 154 25 169 -11 7 -20 24 -20 36 0 27 -22 48 -47 43 -26 -5
-29 -38 -5 -45 11 -3 22 -14 25 -24 6 -23 -8 -78 -26 -103 -13 -17 -17 -18
-58 -4 -52 17 -57 31 -35 98 22 66 21 74 -15 109 -41 42 -98 43 -128 5z"/>
<path d="M3174 765 c-10 -25 5 -33 91 -48 l80 -13 3 -44 c3 -39 -1 -63 -25
-153 -3 -11 -20 -25 -39 -33 -42 -18 -80 -4 -103 38 -14 24 -13 30 4 63 20 36
45 49 81 43 31 -5 29 30 -2 43 -61 23 -154 -47 -154 -115 0 -40 35 -93 74
-111 39 -19 61 -21 99 -12 35 9 44 -11 27 -54 -15 -35 -4 -49 37 -49 19 0 22
7 28 58 3 31 13 98 21 148 16 101 21 195 11 211 -3 5 -48 16 -99 22 -51 7
-101 15 -111 17 -10 3 -20 -1 -23 -11z"/>
<path d="M3477 732 c-13 -20 13 -34 64 -36 48 -1 54 1 54 19 0 17 -8 20 -57
23 -31 2 -59 -1 -61 -6z"/>
<path d="M3780 731 c-78 -6 -85 -8 -88 -28 -3 -23 -3 -23 127 -23 l131 0 0
-30 c0 -39 -27 -50 -125 -50 -78 0 -90 -7 -81 -45 6 -22 7 -23 35 -9 20 10 53
14 98 12 l68 -3 8 -110 c10 -137 9 -135 44 -126 23 6 28 13 27 37 -1 16 -5 94
-9 174 l-8 145 27 13 c18 8 26 19 24 30 -3 15 -16 17 -98 18 -52 0 -133 -2
-180 -5z"/>
<path d="M3501 581 c-9 -6 -11 -17 -6 -32 11 -33 64 -99 80 -99 9 0 15 14 17
38 3 36 4 37 46 40 34 3 42 7 42 23 0 11 -6 21 -12 23 -29 9 -155 14 -167 7z"/>
<path d="M3694 499 c-8 -13 9 -48 57 -114 47 -65 63 -78 89 -70 29 9 25 21
-25 78 -25 28 -50 66 -56 84 -8 25 -16 33 -34 33 -13 0 -27 -5 -31 -11z"/>
</g>
</svg>
